2.8Hzhigh3min_grf.mot
version=1
nRows=12
nColumns 19
inDegrees=yes
endheader
time	1_ground_force_vx	1_ground_force_vy	1_ground_force_vz	1_ground_force_px	1_ground_force_py	1_ground_force_pz	1_ground_torque_x	1_ground_torque_y	1_ground_torque_z	2_ground_force_vx	2_ground_force_vy	2_ground_force_vz	2_ground_force_px	2_ground_force_py	2_ground_force_pz	2_ground_torque_x	2_ground_torque_y	2_ground_torque_z
            1.253500	            0.367601	            2.161096	            0.512780	           -0.233013	            0.005581	           -0.255695	            0.164681	           -0.036432	           -0.060197	            0.090815	            0.738773	           -0.513621	           -0.232311	            0.006130	           -0.833667	           -0.263035	           -0.009797	           -0.169574
            1.254000	            0.092642	            1.620246	            0.511144	           -0.233013	            0.005581	           -0.255695	            0.259183	           -0.018618	            0.059523	            0.181171	            1.660020	           -0.557303	           -0.232311	            0.006130	           -0.833667	           -0.338159	           -0.019387	           -0.207276
            1.254500	            0.137949	            1.440972	            0.280978	           -0.233013	            0.005581	           -0.255695	            0.175077	            0.000107	            0.005379	            0.137000	            0.923090	           -0.512984	           -0.232311	            0.006130	           -0.833667	           -0.356910	           -0.028907	           -0.207302
            1.255000	            0.321273	            1.080673	            0.233121	           -0.233013	            0.005581	           -0.255695	            0.233716	           -0.129368	            0.050106	            0.373203	            0.371826	           -0.608911	           -0.232311	            0.006130	           -0.833667	           -0.300351	           -0.076236	           -0.132093
            1.255500	            0.412422	            0.901408	            0.002841	           -0.233013	            0.005581	           -0.255695	            0.093188	           -0.018037	           -0.039143	            0.187297	            0.001513	           -0.234720	           -0.232311	            0.006130	           -0.833667	           -0.262702	           -0.104257	           -0.188761
            1.256000	            0.275316	            1.080861	            0.187379	           -0.233013	            0.005581	           -0.255695	            0.235506	           -0.018228	           -0.007771	            0.327641	            0.003695	           -0.704061	           -0.232311	            0.006130	           -0.833667	           -0.318998	           -0.123299	           -0.207655
            1.256500	            0.275753	            1.800940	            0.419750	           -0.233013	            0.005581	           -0.255695	            0.244034	            0.009513	           -0.007699	            0.280147	            0.187506	           -0.656456	           -0.232311	            0.006130	           -0.833667	           -0.206423	           -0.085081	           -0.207568
            1.257000	            0.321222	            1.981805	            0.282842	           -0.233013	            0.005581	           -0.255695	            0.099382	           -0.008583	           -0.099460	            0.045939	            0.186326	           -0.562500	           -0.232311	            0.006130	           -0.833667	           -0.244359	            0.009512	           -0.263765
            1.257500	            0.183303	            1.622033	            0.098213	           -0.233013	            0.005581	           -0.255695	            0.107615	           -0.055191	           -0.030339	            0.002473	           -0.735087	           -0.424981	           -0.232311	            0.006130	           -0.833667	           -0.338253	            0.008904	           -0.188325
            1.258000	            0.504025	            1.982823	            0.053107	           -0.233013	            0.005581	           -0.255695	            0.146825	           -0.064119	           -0.054400	            0.185844	            0.370814	           -0.514975	           -0.232311	            0.006130	           -0.833667	           -0.244283	           -0.009460	           -0.244983
            1.258500	            0.137835	            1.441169	            0.235122	           -0.233013	            0.005581	           -0.255695	            0.214538	           -0.046023	           -0.013715	           -0.001535	            0.369970	           -0.467967	           -0.232311	            0.006130	           -0.833667	           -0.262992	           -0.028501	           -0.226192
            1.259000	            0.091633	            2.162616	            0.146616	           -0.233013	            0.005581	           -0.255695	            0.255849	           -0.037360	            0.115826	            0.282867	           -0.549589	           -0.518300	           -0.232311	            0.006130	           -0.833667	           -0.262667	           -0.122893	           -0.264229
